<svg width="322" height="37" viewBox="0 0 322 37" fill="none" xmlns="http://www.w3.org/2000/svg">
<path d="M96.059 0H66.5019C64.4214 0 62.3687 0.464244 60.3714 1.39273C59.6363 1.73036 58.9428 2.1102 58.277 2.56038C57.7361 2.88394 56.9733 3.48886 55.9885 4.38922C52.951 7.52638 51.4253 11.2263 51.4253 15.5029V20.4971C51.4253 23.9297 52.4239 27.0387 54.4073 29.796C54.7818 30.3025 55.3089 30.9074 55.9885 31.6108C56.6681 32.2438 57.2507 32.7503 57.75 33.1301C60.4824 35.0434 63.3812 36 66.4603 36H96.0174V14.2931H74.5604C74.2968 14.2931 73.9917 14.3212 73.6727 14.3916C72.785 14.7011 72.1609 15.2075 71.7864 15.8968C71.4119 16.347 71.2316 17.0504 71.2316 18.0211V22.2556H86.3498V26.7011H66.2661C65.8917 26.7011 65.3369 26.5885 64.6295 26.3634C64.2689 26.2368 63.8805 26.0399 63.4783 25.8007C63.1454 25.5756 62.7432 25.2521 62.2855 24.8441C61.1897 23.6202 60.6349 22.2415 60.6349 20.7081V15.306C60.6349 14.0399 61.0233 12.8581 61.8278 11.7608C63.0899 10.143 64.6988 9.32708 66.6129 9.32708H96.059V0Z" fill="#2B7BC6"/>
<path d="M44.6337 0H15.0766C12.9961 0 10.9434 0.464244 8.94612 1.39273C8.21101 1.73036 7.51751 2.1102 6.85176 2.56038C6.31083 2.88394 5.54798 3.48886 4.56321 4.38922C1.52569 7.52638 0 11.2263 0 15.5029V20.4971C0 23.9297 0.998637 27.0387 2.98204 29.796C3.35653 30.3025 3.88359 30.9074 4.56321 31.6108C5.24284 32.2438 5.82538 32.7503 6.3247 33.1301C9.05708 35.0434 11.9559 36 15.035 36H44.5921V14.2931H23.1351C22.8716 14.2931 22.5664 14.3212 22.2474 14.3916C21.3597 14.7011 20.7356 15.2075 20.3611 15.8968C19.9866 16.347 19.8063 17.0504 19.8063 18.0211V22.2556H34.9245V26.7011H14.8409C14.4664 26.7011 13.9116 26.5885 13.2042 26.3634C12.8436 26.2368 12.4552 26.0399 12.053 25.8007C11.7201 25.5756 11.3179 25.2521 10.8602 24.8441C9.76445 23.6202 9.20965 22.2415 9.20965 20.7081V15.306C9.20965 14.0399 9.59801 12.8581 10.4025 11.7608C11.6646 10.143 13.2735 9.32708 15.1876 9.32708H44.6337V0Z" fill="#2B7BC6"/>
<path d="M104.817 36.0562H317.98C319.855 36.0562 321.382 34.5069 321.382 32.6055L321.382 3.50686C321.382 1.59136 319.855 0.0561523 317.98 0.0561523H104.817C104.817 1.45678 104.817 25.6445 104.817 36.0562Z" fill="#EA1649"/>
<path d="M114 8.27778H125.826C127.797 8.27778 129.224 8.72222 130.106 9.61111C131.007 10.4815 131.458 11.8889 131.458 13.8333V16.6111C131.458 18.5556 131.007 19.9722 130.106 20.8611C129.224 21.7315 127.797 22.1667 125.826 22.1667H119.068V27.7222H114V8.27778ZM126.389 13.8333C126.389 12.7222 125.826 12.1667 124.7 12.1667H119.068V18.2778H124.7C125.826 18.2778 126.389 17.7222 126.389 16.6111V13.8333Z" fill="#FBFAF9"/>
<path d="M136.243 8.27778H148.069C150.04 8.27778 151.467 8.72222 152.349 9.61111C153.25 10.4815 153.701 11.8889 153.701 13.8333V16.3333C153.701 17.8704 153.438 19.0648 152.912 19.9167C152.406 20.7685 151.589 21.3333 150.463 21.6111L153.982 27.7222H148.492L145.254 21.8889H141.312V27.7222H136.243V8.27778ZM148.632 13.8333C148.632 12.7222 148.069 12.1667 146.943 12.1667H141.312V18H146.943C148.069 18 148.632 17.4444 148.632 16.3333V13.8333Z" fill="#FBFAF9"/>
<path d="M171.432 13.5556C171.432 12.4444 170.869 11.8889 169.743 11.8889H164.956C163.83 11.8889 163.267 12.4444 163.267 13.5556V22.4444C163.267 23.5556 163.83 24.1111 164.956 24.1111H169.743C170.869 24.1111 171.432 23.5556 171.432 22.4444V13.5556ZM176.501 22.4444C176.501 24.3889 176.05 25.8056 175.149 26.6944C174.267 27.5648 172.84 28 170.869 28H163.83C161.859 28 160.423 27.5648 159.522 26.6944C158.639 25.8056 158.198 24.3889 158.198 22.4444V13.5556C158.198 11.6111 158.639 10.2037 159.522 9.33333C160.423 8.44444 161.859 8 163.83 8H170.869C172.84 8 174.267 8.44444 175.149 9.33333C176.05 10.2037 176.501 11.6111 176.501 13.5556V22.4444Z" fill="#FBFAF9"/>
<path d="M198.477 16.8889L194.535 23.8333H190.592L186.65 16.8889V27.7222H181.582V8.27778H186.932L192.563 18.5556L198.195 8.27778H203.545V27.7222H198.477V16.8889Z" fill="#FBFAF9"/>
<path d="M212.707 27.7222H207.216L214.678 8.27778H220.31L227.771 27.7222H222.281L221.013 24.25H213.974L212.707 27.7222ZM215.241 20.6389H219.746L217.494 14.1111L215.241 20.6389Z" fill="#FBFAF9"/>
<path d="M231.431 8.27778H243.257C245.228 8.27778 246.654 8.72222 247.537 9.61111C248.438 10.4815 248.888 11.8889 248.888 13.8333V16.3333C248.888 17.8704 248.625 19.0648 248.1 19.9167C247.593 20.7685 246.776 21.3333 245.65 21.6111L249.17 27.7222H243.679L240.441 21.8889H236.499V27.7222H231.431V8.27778ZM243.82 13.8333C243.82 12.7222 243.257 12.1667 242.13 12.1667H236.499V18H242.13C243.257 18 243.82 17.4444 243.82 16.3333V13.8333Z" fill="#FBFAF9"/>
<path d="M259.017 27.7222H253.949V8.27778H259.017V15.9167H261.551L265.944 8.27778H271.294L265.775 17.8611L271.266 27.7222H265.916L261.551 19.8056H259.017V27.7222Z" fill="#FBFAF9"/>
<path d="M290.857 27.7222H275.23V8.27778H290.857V12.1667H280.298V15.9167H288.604V19.8056H280.298V23.8333H290.857V27.7222Z" fill="#FBFAF9"/>
<path d="M304.929 27.7222H299.861V12.1667H293.948V8.27778H310.842V12.1667H304.929V27.7222Z" fill="#FBFAF9"/>
</svg>
